<svg width="40" height="40" viewBox="0 0 40 40" fill="none" xmlns="http://www.w3.org/2000/svg">
<g clip-path="url(#clip0_2333_89)">
<g clip-path="url(#clip1_2333_89)">
<mask id="mask0_2333_89" style="mask-type:luminance" maskUnits="userSpaceOnUse" x="0" y="0" width="40" height="40">
<path d="M20 40C31.0457 40 40 31.0457 40 20C40 8.9543 31.0457 0 20 0C8.9543 0 0 8.9543 0 20C0 31.0457 8.9543 40 20 40Z" fill="white"/>
</mask>
<g mask="url(#mask0_2333_89)">
<path d="M40 13.2812V26.7188L20 29.2188L0 26.7188V13.2812L20 10.7812L40 13.2812Z" fill="#0052B4"/>
<path d="M40 0V13.2812H0V0H40Z" fill="#EEEEEE"/>
<path d="M40 26.7188V40H0V26.7188H40Z" fill="#D80027"/>
</g>
</g>
</g>
<defs>
<clipPath id="clip0_2333_89">
<rect width="40" height="40" rx="20" fill="white"/>
</clipPath>
<clipPath id="clip1_2333_89">
<rect width="40" height="40" fill="white"/>
</clipPath>
</defs>
</svg>
