<svg width="40" height="40" viewBox="0 0 40 40" fill="none" xmlns="http://www.w3.org/2000/svg">
<g clip-path="url(#clip0_2333_99)">
<g clip-path="url(#clip1_2333_99)">
<mask id="mask0_2333_99" style="mask-type:luminance" maskUnits="userSpaceOnUse" x="0" y="0" width="40" height="40">
<path d="M20 40C31.0457 40 40 31.0457 40 20C40 8.9543 31.0457 0 20 0C8.9543 0 0 8.9543 0 20C0 31.0457 8.9543 40 20 40Z" fill="white"/>
</mask>
<g mask="url(#mask0_2333_99)">
<path d="M20 0H40V5L37.5 7.5L40 10V15L37.5 17.5L40 20V25L37.5 27.5L40 30V35L20 37.5L0 35V30L2.5 27.5L0 25V20L20 0Z" fill="#EEEEEE"/>
<path d="M17.5 5H40V10H17.5V5ZM17.5 15H40V20H20L17.5 15ZM0 25H40V30H0V25ZM0 35H40V40H0V35Z" fill="#D80027"/>
<path d="M0 0H20V20H0V0Z" fill="#0052B4"/>
<path d="M14.6094 18.9844L19.0625 15.7812H13.5938L18.0469 18.9844L16.3281 13.75L14.6094 18.9844ZM8.28125 18.9844L12.7344 15.7812H7.26562L11.7188 18.9844L10 13.75L8.28125 18.9844ZM1.95312 18.9844L6.40625 15.7812H0.9375L5.39062 18.9844L3.67188 13.75L1.95312 18.9844ZM14.6094 12.6562L19.0625 9.45312H13.5938L18.0469 12.6562L16.3281 7.42188L14.6094 12.6562ZM8.28125 12.6562L12.7344 9.45312H7.26562L11.7188 12.6562L10 7.42188L8.28125 12.6562ZM1.95312 12.6562L6.40625 9.45312H0.9375L5.39062 12.6562L3.67188 7.42188L1.95312 12.6562ZM14.6094 6.25L19.0625 3.04688H13.5938L18.0469 6.25L16.3281 1.01562L14.6094 6.25ZM8.28125 6.25L12.7344 3.04688H7.26562L11.7188 6.25L10 1.01562L8.28125 6.25ZM1.95312 6.25L6.40625 3.04688H0.9375L5.39062 6.25L3.67188 1.01562L1.95312 6.25Z" fill="#EEEEEE"/>
</g>
</g>
</g>
<defs>
<clipPath id="clip0_2333_99">
<rect width="40" height="40" rx="20" fill="white"/>
</clipPath>
<clipPath id="clip1_2333_99">
<rect width="40" height="40" fill="white"/>
</clipPath>
</defs>
</svg>
