<svg width="30" height="20" viewBox="0 0 30 20" fill="none" xmlns="http://www.w3.org/2000/svg">
<mask id="mask0_2343_64" style="mask-type:luminance" maskUnits="userSpaceOnUse" x="0" y="0" width="30" height="20">
<path d="M30 0H0V20H30V0Z" fill="white"/>
</mask>
<g mask="url(#mask0_2343_64)">
<path d="M0 0H30V20H0" fill="#BD3D44"/>
<path d="M0 1.53333V3.07499H30V1.53333H0ZM0 4.60416V6.14582H30V4.60416H0ZM0 7.68749V9.22915H30V7.68749H0ZM0 10.7708V12.3125H30V10.7708H0ZM0 13.8542V15.3958H30V13.8542H0ZM0 16.9375V18.4792H30V16.9375H0Z" fill="white"/>
<path d="M0 0H17.1V10.7708H0" fill="#192F5D"/>
<path d="M15.6562 9.08333L16.0781 10.2083L15 9.5H16.3125L15.2344 10.2083L15.6562 9.08333ZM12.8438 9.08333L13.2656 10.2083L12.1875 9.5H13.5L12.4219 10.2083L12.8438 9.08333ZM9.98438 9.08333L10.4062 10.2083L9.32812 9.5H10.6406L9.5625 10.2083L9.98438 9.08333ZM7.125 9.08333L7.54688 10.2083L6.46875 9.5H7.78125L6.70312 10.2083L7.125 9.08333ZM4.26562 9.08333L4.6875 10.2083L3.60938 9.5H4.92188L3.84375 10.2083L4.26562 9.08333ZM1.40625 9.08333L1.82812 10.2083L0.75 9.5H2.0625L0.984375 10.2083L1.40625 9.08333ZM14.25 8L14.6719 9.125L13.5938 8.41666H14.9062L13.8281 9.125L14.25 8ZM11.3906 8L11.8125 9.125L10.7344 8.41666H12.0469L10.9688 9.125L11.3906 8ZM8.57812 8L9 9.125L7.92188 8.41666H9.23438L8.15625 9.125L8.57812 8ZM5.71875 8L6.14062 9.125L5.0625 8.41666H6.375L5.29688 9.125L5.71875 8ZM2.85938 8L3.28125 9.125L2.20312 8.41666H3.51562L2.4375 9.125L2.85938 8ZM15.6562 6.91666L16.0781 8.04166L15 7.33333H16.3125L15.2344 8.04166L15.6562 6.91666ZM12.8438 6.91666L13.2656 8.04166L12.1875 7.33333H13.5L12.4219 8.04166L12.8438 6.91666ZM9.98438 6.91666L10.4062 8.04166L9.32812 7.33333H10.6406L9.5625 8.04166L9.98438 6.91666ZM7.125 6.91666L7.54688 8.04166L6.46875 7.33333H7.78125L6.70312 8.04166L7.125 6.91666ZM4.26562 6.91666L4.6875 8.04166L3.60938 7.33333H4.92188L3.84375 8.04166L4.26562 6.91666ZM1.40625 6.91666L1.82812 8.04166L0.75 7.33333H2.0625L0.984375 8.04166L1.40625 6.91666ZM14.25 5.875L14.6719 7L13.5938 6.29166H14.9062L13.8281 7L14.25 5.875ZM11.3906 5.875L11.8125 7L10.7344 6.29166H12.0469L10.9688 7L11.3906 5.875ZM8.57812 5.875L9 7L7.92188 6.29166H9.23438L8.15625 7L8.57812 5.875ZM5.71875 5.875L6.14062 7L5.0625 6.29166H6.375L5.29688 7L5.71875 5.875ZM2.85938 5.875L3.28125 7L2.20312 6.29166H3.51562L2.4375 7L2.85938 5.875ZM15.6562 4.79166L16.0781 5.91666L15 5.20833H16.3125L15.2344 5.91666L15.6562 4.79166ZM12.8438 4.79166L13.2656 5.91666L12.1875 5.20833H13.5L12.4219 5.91666L12.8438 4.79166ZM9.98438 4.79166L10.4062 5.91666L9.32812 5.20833H10.6406L9.5625 5.91666L9.98438 4.79166ZM7.125 4.79166L7.54688 5.91666L6.46875 5.20833H7.78125L6.70312 5.91666L7.125 4.79166ZM4.26562 4.79166L4.6875 5.91666L3.60938 5.20833H4.92188L3.84375 5.91666L4.26562 4.79166ZM1.40625 4.79166L1.82812 5.91666L0.75 5.20833H2.0625L0.984375 5.91666L1.40625 4.79166ZM14.25 3.70833L14.6719 4.83333L13.5938 4.125H14.9062L13.8281 4.83333L14.25 3.70833ZM11.3906 3.70833L11.8125 4.83333L10.7344 4.125H12.0469L10.9688 4.83333L11.3906 3.70833ZM8.57812 3.70833L9 4.83333L7.92188 4.125H9.23438L8.15625 4.83333L8.57812 3.70833ZM5.71875 3.70833L6.14062 4.83333L5.0625 4.125H6.375L5.29688 4.83333L5.71875 3.70833ZM2.85938 3.70833L3.28125 4.83333L2.20312 4.125H3.51562L2.4375 4.83333L2.85938 3.70833ZM15.6562 2.62499L16.0781 3.75L15 3.04166H16.3125L15.2344 3.75L15.6562 2.62499ZM12.8438 2.62499L13.2656 3.75L12.1875 3.04166H13.5L12.4219 3.75L12.8438 2.62499ZM9.98438 2.62499L10.4062 3.75L9.32812 3.04166H10.6406L9.5625 3.75L9.98438 2.62499ZM7.125 2.62499L7.54688 3.75L6.46875 3.04166H7.78125L6.70312 3.75L7.125 2.62499ZM4.26562 2.62499L4.6875 3.75L3.60938 3.04166H4.92188L3.84375 3.75L4.26562 2.62499ZM1.40625 2.62499L1.82812 3.75L0.75 3.04166H2.0625L0.984375 3.75L1.40625 2.62499ZM14.25 1.54166L14.6719 2.66666L13.5938 1.95833H14.9062L13.8281 2.66666L14.25 1.54166ZM11.3906 1.54166L11.8125 2.66666L10.7344 1.95833H12.0469L10.9688 2.66666L11.3906 1.54166ZM8.57812 1.54166L9 2.66666L7.92188 1.95833H9.23438L8.15625 2.66666L8.57812 1.54166ZM5.71875 1.54166L6.14062 2.66666L5.0625 1.95833H6.375L5.29688 2.66666L5.71875 1.54166ZM2.85938 1.54166L3.28125 2.66666L2.20312 1.95833H3.51562L2.4375 2.66666L2.85938 1.54166ZM15.6562 0.458328L16.0781 1.58333L15 0.874995H16.3125L15.2344 1.58333L15.6562 0.458328ZM12.8438 0.458328L13.2656 1.58333L12.1875 0.874995H13.5L12.4219 1.58333L12.8438 0.458328ZM9.98438 0.458328L10.4062 1.58333L9.32812 0.874995H10.6406L9.5625 1.58333L9.98438 0.458328ZM7.125 0.458328L7.54688 1.58333L6.46875 0.874995H7.78125L6.70312 1.58333L7.125 0.458328ZM4.26562 0.458328L4.6875 1.58333L3.60938 0.874995H4.92188L3.84375 1.58333L4.26562 0.458328ZM1.40625 0.458328L1.82812 1.58333L0.75 0.874995H2.0625L0.984375 1.58333L1.40625 0.458328Z" fill="white"/>
</g>
</svg>
