<svg width="40" height="30" viewBox="0 0 40 30" fill="none" xmlns="http://www.w3.org/2000/svg">
<g clip-path="url(#clip0_2343_55)">
<mask id="mask0_2343_55" style="mask-type:luminance" maskUnits="userSpaceOnUse" x="0" y="0" width="40" height="30">
<path d="M40 0H0V30H40V0Z" fill="white"/>
</mask>
<g mask="url(#mask0_2343_55)">
<path d="M0 0H40V30H0" fill="#BD3D44"/>
<path d="M0 2.3V4.6125H40V2.3H0ZM0 6.90625V9.21875H40V6.90625H0ZM0 11.5312V13.8437H40V11.5312H0ZM0 16.1562V18.4687H40V16.1562H0ZM0 20.7812V23.0937H40V20.7812H0ZM0 25.4062V27.7187H40V25.4062H0Z" fill="white"/>
<path d="M0 0H22.8V16.1562H0" fill="#192F5D"/>
<path d="M20.875 13.625L21.4375 15.3125L20 14.25H21.75L20.3125 15.3125L20.875 13.625ZM17.125 13.625L17.6875 15.3125L16.25 14.25H18L16.5625 15.3125L17.125 13.625ZM13.3125 13.625L13.875 15.3125L12.4375 14.25H14.1875L12.75 15.3125L13.3125 13.625ZM9.5 13.625L10.0625 15.3125L8.625 14.25H10.375L8.9375 15.3125L9.5 13.625ZM5.6875 13.625L6.25 15.3125L4.8125 14.25H6.5625L5.125 15.3125L5.6875 13.625ZM1.875 13.625L2.4375 15.3125L1 14.25H2.75L1.3125 15.3125L1.875 13.625ZM19 12L19.5625 13.6875L18.125 12.625H19.875L18.4375 13.6875L19 12ZM15.1875 12L15.75 13.6875L14.3125 12.625H16.0625L14.625 13.6875L15.1875 12ZM11.4375 12L12 13.6875L10.5625 12.625H12.3125L10.875 13.6875L11.4375 12ZM7.625 12L8.1875 13.6875L6.75 12.625H8.5L7.0625 13.6875L7.625 12ZM3.8125 12L4.375 13.6875L2.9375 12.625H4.6875L3.25 13.6875L3.8125 12ZM20.875 10.375L21.4375 12.0625L20 11H21.75L20.3125 12.0625L20.875 10.375ZM17.125 10.375L17.6875 12.0625L16.25 11H18L16.5625 12.0625L17.125 10.375ZM13.3125 10.375L13.875 12.0625L12.4375 11H14.1875L12.75 12.0625L13.3125 10.375ZM9.5 10.375L10.0625 12.0625L8.625 11H10.375L8.9375 12.0625L9.5 10.375ZM5.6875 10.375L6.25 12.0625L4.8125 11H6.5625L5.125 12.0625L5.6875 10.375ZM1.875 10.375L2.4375 12.0625L1 11H2.75L1.3125 12.0625L1.875 10.375ZM19 8.8125L19.5625 10.5L18.125 9.4375H19.875L18.4375 10.5L19 8.8125ZM15.1875 8.8125L15.75 10.5L14.3125 9.4375H16.0625L14.625 10.5L15.1875 8.8125ZM11.4375 8.8125L12 10.5L10.5625 9.4375H12.3125L10.875 10.5L11.4375 8.8125ZM7.625 8.8125L8.1875 10.5L6.75 9.4375H8.5L7.0625 10.5L7.625 8.8125ZM3.8125 8.8125L4.375 10.5L2.9375 9.4375H4.6875L3.25 10.5L3.8125 8.8125ZM20.875 7.1875L21.4375 8.875L20 7.8125H21.75L20.3125 8.875L20.875 7.1875ZM17.125 7.1875L17.6875 8.875L16.25 7.8125H18L16.5625 8.875L17.125 7.1875ZM13.3125 7.1875L13.875 8.875L12.4375 7.8125H14.1875L12.75 8.875L13.3125 7.1875ZM9.5 7.1875L10.0625 8.875L8.625 7.8125H10.375L8.9375 8.875L9.5 7.1875ZM5.6875 7.1875L6.25 8.875L4.8125 7.8125H6.5625L5.125 8.875L5.6875 7.1875ZM1.875 7.1875L2.4375 8.875L1 7.8125H2.75L1.3125 8.875L1.875 7.1875ZM19 5.5625L19.5625 7.25L18.125 6.1875H19.875L18.4375 7.25L19 5.5625ZM15.1875 5.5625L15.75 7.25L14.3125 6.1875H16.0625L14.625 7.25L15.1875 5.5625ZM11.4375 5.5625L12 7.25L10.5625 6.1875H12.3125L10.875 7.25L11.4375 5.5625ZM7.625 5.5625L8.1875 7.25L6.75 6.1875H8.5L7.0625 7.25L7.625 5.5625ZM3.8125 5.5625L4.375 7.25L2.9375 6.1875H4.6875L3.25 7.25L3.8125 5.5625ZM20.875 3.9375L21.4375 5.625L20 4.5625H21.75L20.3125 5.625L20.875 3.9375ZM17.125 3.9375L17.6875 5.625L16.25 4.5625H18L16.5625 5.625L17.125 3.9375ZM13.3125 3.9375L13.875 5.625L12.4375 4.5625H14.1875L12.75 5.625L13.3125 3.9375ZM9.5 3.9375L10.0625 5.625L8.625 4.5625H10.375L8.9375 5.625L9.5 3.9375ZM5.6875 3.9375L6.25 5.625L4.8125 4.5625H6.5625L5.125 5.625L5.6875 3.9375ZM1.875 3.9375L2.4375 5.625L1 4.5625H2.75L1.3125 5.625L1.875 3.9375ZM19 2.3125L19.5625 4L18.125 2.9375H19.875L18.4375 4L19 2.3125ZM15.1875 2.3125L15.75 4L14.3125 2.9375H16.0625L14.625 4L15.1875 2.3125ZM11.4375 2.3125L12 4L10.5625 2.9375H12.3125L10.875 4L11.4375 2.3125ZM7.625 2.3125L8.1875 4L6.75 2.9375H8.5L7.0625 4L7.625 2.3125ZM3.8125 2.3125L4.375 4L2.9375 2.9375H4.6875L3.25 4L3.8125 2.3125ZM20.875 0.6875L21.4375 2.375L20 1.3125H21.75L20.3125 2.375L20.875 0.6875ZM17.125 0.6875L17.6875 2.375L16.25 1.3125H18L16.5625 2.375L17.125 0.6875ZM13.3125 0.6875L13.875 2.375L12.4375 1.3125H14.1875L12.75 2.375L13.3125 0.6875ZM9.5 0.6875L10.0625 2.375L8.625 1.3125H10.375L8.9375 2.375L9.5 0.6875ZM5.6875 0.6875L6.25 2.375L4.8125 1.3125H6.5625L5.125 2.375L5.6875 0.6875ZM1.875 0.6875L2.4375 2.375L1 1.3125H2.75L1.3125 2.375L1.875 0.6875Z" fill="white"/>
</g>
</g>
<defs>
<clipPath id="clip0_2343_55">
<rect width="40" height="30" fill="white"/>
</clipPath>
</defs>
</svg>
