<svg width="60" height="40" viewBox="0 0 60 40" fill="none" xmlns="http://www.w3.org/2000/svg">
<g clip-path="url(#clip0_2343_55)">
<mask id="mask0_2343_55" style="mask-type:luminance" maskUnits="userSpaceOnUse" x="0" y="0" width="60" height="40">
<path d="M60 0H0V40H60V0Z" fill="white"/>
</mask>
<g mask="url(#mask0_2343_55)">
<path d="M0 0H60V40H0" fill="#BD3D44"/>
<path d="M0 3.06668V6.15001H60V3.06668H0ZM0 9.20834V12.2917H60V9.20834H0ZM0 15.375V18.4583H60V15.375H0ZM0 21.5417V24.625H60V21.5417H0ZM0 27.7083V30.7917H60V27.7083H0ZM0 33.875V36.9583H60V33.875H0Z" fill="white"/>
<path d="M0 0H34.2V21.5417H0" fill="#192F5D"/>
<path d="M31.3125 18.1667L32.1562 20.4167L30 19H32.625L30.4688 20.4167L31.3125 18.1667ZM25.6875 18.1667L26.5312 20.4167L24.375 19H27L24.8438 20.4167L25.6875 18.1667ZM19.9688 18.1667L20.8125 20.4167L18.6562 19H21.2812L19.125 20.4167L19.9688 18.1667ZM14.25 18.1667L15.0938 20.4167L12.9375 19H15.5625L13.4062 20.4167L14.25 18.1667ZM8.53125 18.1667L9.375 20.4167L7.21875 19H9.84375L7.6875 20.4167L8.53125 18.1667ZM2.8125 18.1667L3.65625 20.4167L1.5 19H4.125L1.96875 20.4167L2.8125 18.1667ZM28.5 16L29.3438 18.25L27.1875 16.8333H29.8125L27.6562 18.25L28.5 16ZM22.7812 16L23.625 18.25L21.4688 16.8333H24.0938L21.9375 18.25L22.7812 16ZM17.1562 16L18 18.25L15.8438 16.8333H18.4688L16.3125 18.25L17.1562 16ZM11.4375 16L12.2812 18.25L10.125 16.8333H12.75L10.5938 18.25L11.4375 16ZM5.71875 16L6.5625 18.25L4.40625 16.8333H7.03125L4.875 18.25L5.71875 16ZM31.3125 13.8333L32.1562 16.0833L30 14.6667H32.625L30.4688 16.0833L31.3125 13.8333ZM25.6875 13.8333L26.5312 16.0833L24.375 14.6667H27L24.8438 16.0833L25.6875 13.8333ZM19.9688 13.8333L20.8125 16.0833L18.6562 14.6667H21.2812L19.125 16.0833L19.9688 13.8333ZM14.25 13.8333L15.0938 16.0833L12.9375 14.6667H15.5625L13.4062 16.0833L14.25 13.8333ZM8.53125 13.8333L9.375 16.0833L7.21875 14.6667H9.84375L7.6875 16.0833L8.53125 13.8333ZM2.8125 13.8333L3.65625 16.0833L1.5 14.6667H4.125L1.96875 16.0833L2.8125 13.8333ZM28.5 11.75L29.3438 14L27.1875 12.5833H29.8125L27.6562 14L28.5 11.75ZM22.7812 11.75L23.625 14L21.4688 12.5833H24.0938L21.9375 14L22.7812 11.75ZM17.1562 11.75L18 14L15.8438 12.5833H18.4688L16.3125 14L17.1562 11.75ZM11.4375 11.75L12.2812 14L10.125 12.5833H12.75L10.5938 14L11.4375 11.75ZM5.71875 11.75L6.5625 14L4.40625 12.5833H7.03125L4.875 14L5.71875 11.75ZM31.3125 9.58334L32.1562 11.8333L30 10.4167H32.625L30.4688 11.8333L31.3125 9.58334ZM25.6875 9.58334L26.5312 11.8333L24.375 10.4167H27L24.8438 11.8333L25.6875 9.58334ZM19.9688 9.58334L20.8125 11.8333L18.6562 10.4167H21.2812L19.125 11.8333L19.9688 9.58334ZM14.25 9.58334L15.0938 11.8333L12.9375 10.4167H15.5625L13.4062 11.8333L14.25 9.58334ZM8.53125 9.58334L9.375 11.8333L7.21875 10.4167H9.84375L7.6875 11.8333L8.53125 9.58334ZM2.8125 9.58334L3.65625 11.8333L1.5 10.4167H4.125L1.96875 11.8333L2.8125 9.58334ZM28.5 7.41667L29.3438 9.66667L27.1875 8.25001H29.8125L27.6562 9.66667L28.5 7.41667ZM22.7812 7.41667L23.625 9.66667L21.4688 8.25001H24.0938L21.9375 9.66667L22.7812 7.41667ZM17.1562 7.41667L18 9.66667L15.8438 8.25001H18.4688L16.3125 9.66667L17.1562 7.41667ZM11.4375 7.41667L12.2812 9.66667L10.125 8.25001H12.75L10.5938 9.66667L11.4375 7.41667ZM5.71875 7.41667L6.5625 9.66667L4.40625 8.25001H7.03125L4.875 9.66667L5.71875 7.41667ZM31.3125 5.25001L32.1562 7.50001L30 6.08334H32.625L30.4688 7.50001L31.3125 5.25001ZM25.6875 5.25001L26.5312 7.50001L24.375 6.08334H27L24.8438 7.50001L25.6875 5.25001ZM19.9688 5.25001L20.8125 7.50001L18.6562 6.08334H21.2812L19.125 7.50001L19.9688 5.25001ZM14.25 5.25001L15.0938 7.50001L12.9375 6.08334H15.5625L13.4062 7.50001L14.25 5.25001ZM8.53125 5.25001L9.375 7.50001L7.21875 6.08334H9.84375L7.6875 7.50001L8.53125 5.25001ZM2.8125 5.25001L3.65625 7.50001L1.5 6.08334H4.125L1.96875 7.50001L2.8125 5.25001ZM28.5 3.08334L29.3438 5.33334L27.1875 3.91667H29.8125L27.6562 5.33334L28.5 3.08334ZM22.7812 3.08334L23.625 5.33334L21.4688 3.91667H24.0938L21.9375 5.33334L22.7812 3.08334ZM17.1562 3.08334L18 5.33334L15.8438 3.91667H18.4688L16.3125 5.33334L17.1562 3.08334ZM11.4375 3.08334L12.2812 5.33334L10.125 3.91667H12.75L10.5938 5.33334L11.4375 3.08334ZM5.71875 3.08334L6.5625 5.33334L4.40625 3.91667H7.03125L4.875 5.33334L5.71875 3.08334ZM31.3125 0.916672L32.1562 3.16667L30 1.75001H32.625L30.4688 3.16667L31.3125 0.916672ZM25.6875 0.916672L26.5312 3.16667L24.375 1.75001H27L24.8438 3.16667L25.6875 0.916672ZM19.9688 0.916672L20.8125 3.16667L18.6562 1.75001H21.2812L19.125 3.16667L19.9688 0.916672ZM14.25 0.916672L15.0938 3.16667L12.9375 1.75001H15.5625L13.4062 3.16667L14.25 0.916672ZM8.53125 0.916672L9.375 3.16667L7.21875 1.75001H9.84375L7.6875 3.16667L8.53125 0.916672ZM2.8125 0.916672L3.65625 3.16667L1.5 1.75001H4.125L1.96875 3.16667L2.8125 0.916672Z" fill="white"/>
</g>
</g>
<defs>
<clipPath id="clip0_2343_55">
<rect width="60" height="40" fill="white"/>
</clipPath>
</defs>
</svg>
