<svg width="180" height="180" viewBox="0 0 180 180" fill="none" xmlns="http://www.w3.org/2000/svg">
<g clip-path="url(#clip0_22834_85)">
<mask id="mask0_22834_85" style="mask-type:luminance" maskUnits="userSpaceOnUse" x="0" y="0" width="180" height="180">
<path d="M180 0H0V180H180V0Z" fill="white"/>
</mask>
<g mask="url(#mask0_22834_85)">
<path d="M0 0C59.4 0 118.8 0 180 0C180 59.4 180 118.8 180 180C120.6 180 61.2 180 0 180C0 120.6 0 61.2 0 0Z" fill="#F7F7F6"/>
<path d="M0 0C59.4 0 118.8 0 180 0C180 59.4 180 118.8 180 180C120.6 180 61.2 180 0 180C0 120.6 0 61.2 0 0ZM15 15C15 64.5 15 114 15 165C64.5 165 114 165 165 165C165 115.5 165 66 165 15C115.5 15 66 15 15 15Z" fill="#FFA432"/>
<path d="M124 61C125.32 61 126.64 61 128 61C128 62.32 128 63.64 128 65C129.32 65 130.64 65 132 65C132 63.68 132 62.36 132 61C133.65 61 135.3 61 137 61C137 62.65 137 64.3 137 66C138.65 66 140.3 66 142 66C142 64.35 142 62.7 142 61C143.32 61 144.64 61 146 61C146 63.97 146 66.94 146 70C147.65 70 149.3 70 151 70C151 67.03 151 64.06 151 61C152.32 61 153.64 61 155 61C155 66.94 155 72.88 155 79C153.35 79 151.7 79 150 79C150 77.68 150 76.36 150 75C147.36 75 144.72 75 142 75C142 76.32 142 77.64 142 79C143.32 79 144.64 79 146 79C146 80.32 146 81.64 146 83C147.32 83 148.64 83 150 83C150 84.65 150 86.3 150 88C151.65 88 153.3 88 155 88C155 89.32 155 90.64 155 92C153.68 92 152.36 92 151 92C151 93.65 151 95.3 151 97C149.35 97 147.7 97 146 97C146 98.32 146 99.64 146 101C148.97 101 151.94 101 155 101C155 102.65 155 104.3 155 106C153.35 106 151.7 106 150 106C150 107.32 150 108.64 150 110C151.65 110 153.3 110 155 110C155 111.65 155 113.3 155 115C153.35 115 151.7 115 150 115C150 116.32 150 117.64 150 119C151.65 119 153.3 119 155 119C155 124.94 155 130.88 155 137C153.35 137 151.7 137 150 137C150 132.71 150 128.42 150 124C148.68 124 147.36 124 146 124C146 125.32 146 126.64 146 128C144.35 128 142.7 128 141 128C141 129.65 141 131.3 141 133C142.65 133 144.3 133 146 133C146 134.32 146 135.64 146 137C144.35 137 142.7 137 141 137C141 138.32 141 139.64 141 141C139.68 141 138.36 141 137 141C137 139.68 137 138.36 137 137C134.03 137 131.06 137 128 137C128 138.65 128 140.3 128 142C130.97 142 133.94 142 137 142C137 144.64 137 147.28 137 150C138.65 150 140.3 150 142 150C142 147.36 142 144.72 142 142C144.64 142 147.28 142 150 142C150 143.32 150 144.64 150 146C148.68 146 147.36 146 146 146C146 147.32 146 148.64 146 150C147.65 150.33 149.3 150.66 151 151C151 152.32 151 153.64 151 155C149.35 155 147.7 155 146 155C146 153.68 146 152.36 146 151C144.68 151 143.36 151 142 151C142 152.32 142 153.64 142 155C140.35 155 138.7 155 137 155C137 153.68 137 152.36 137 151C135.68 151 134.36 151 133 151C133 152.32 133 153.64 133 155C128.38 155 123.76 155 119 155C119 150.38 119 145.76 119 141C117.68 141 116.36 141 115 141C115 139.68 115 138.36 115 137C112.03 137 109.06 137 106 137C106 138.32 106 139.64 106 141C104.35 141 102.7 141 101 141C101 145.62 101 150.24 101 155C93.74 155 86.48 155 79 155C79 153.68 79 152.36 79 151C76.03 151 73.06 151 70 151C70 152.32 70 153.64 70 155C68.68 155 67.36 155 66 155C66 147.74 66 140.48 66 133C64.35 133 62.7 133 61 133C61 131.35 61 129.7 61 128C62.65 128 64.3 128 66 128C66 126.68 66 125.36 66 124C64.35 124 62.7 124 61 124C61 122.35 61 120.7 61 119C58.03 119 55.06 119 52 119C52 117.68 52 116.36 52 115C50.68 115 49.36 115 48 115C48 113.35 48 111.7 48 110C46.35 110 44.7 110 43 110C43 108.68 43 107.36 43 106C41.68 106 40.36 106 39 106C39 107.32 39 108.64 39 110C36.03 110 33.06 110 30 110C30 112.97 30 115.94 30 119C28.68 119 27.36 119 26 119C26 111.74 26 104.48 26 97C27.32 97 28.64 97 30 97C30 98.32 30 99.64 30 101C31.32 101 32.64 101 34 101C34 98.03 34 95.06 34 92C35.65 92 37.3 92 39 92C39 90.68 39 89.36 39 88C36.03 88 33.06 88 30 88C30 86.35 30 84.7 30 83C28.68 83 27.36 83 26 83C26 80.36 26 77.72 26 75C27.32 75 28.64 75 30 75C30 76.32 30 77.64 30 79C31.32 79 32.64 79 34 79C34 77.35 34 75.7 34 74C35.65 74 37.3 74 39 74C39 75.65 39 77.3 39 79C37.68 79 36.36 79 35 79C35 80.32 35 81.64 35 83C36.3 82.98 37.6 82.96 38.94 82.94C40.29 82.92 41.65 82.93 43 83C44 84 44 84 44.1 85.85C44.07 87.9 44.03 89.95 44 92C45.32 92 46.64 92 48 92C48 90.68 48 89.36 48 88C50.97 88 53.94 88 57 88C57 89.32 57 90.64 57 92C55.35 92 53.7 92 52 92C52 93.65 52 95.3 52 97C49.03 97 46.06 97 43 97C43 95.68 43 94.36 43 93C41.68 93 40.36 93 39 93C39 95.64 39 98.28 39 101C40.65 101 42.3 101 44 101C44 102.65 44 104.3 44 106C49.61 106 55.22 106 61 106C61 104.68 61 103.36 61 102C65.29 102 69.58 102 74 102C74 103.32 74 104.64 74 106C71.36 106 68.72 106 66 106C66 107.32 66 108.64 66 110C64.35 110 62.7 110 61 110C61 111.65 61 113.3 61 115C62.65 115 64.3 115 66 115C66 113.68 66 112.36 66 111C67.32 111 68.64 111 70 111C70 115.29 70 119.58 70 124C71.65 124 73.3 124 75 124C75 119.71 75 115.42 75 111C76.32 111 77.64 111 79 111C79 112.32 79 113.64 79 115C80.65 115 82.3 115 84 115C84 113.68 84 112.36 84 111C85.32 111 86.64 111 88 111C88 113.64 88 116.28 88 119C89.32 119 90.64 119 92 119C92 117.68 92 116.36 92 115C93.65 115 95.3 115 97 115C97 113.35 97 111.7 97 110C98.32 110 99.64 110 101 110C101 107.03 101 104.06 101 101C105.62 101 110.24 101 115 101C115 99.68 115 98.36 115 97C110.38 97 105.76 97 101 97C101 95.35 101 93.7 101 92C99.68 92 98.36 92 97 92C97 94.97 97 97.94 97 101C95.68 101 94.36 101 93 101C93 96.71 93 92.42 93 88C94.32 88 95.64 88 97 88C97 85.03 97 82.06 97 79C101.29 79 105.58 79 110 79C110 77.68 110 76.36 110 75C108.68 75 107.36 75 106 75C106 72.03 106 69.06 106 66C107.32 66 108.64 66 110 66C110 67.32 110 68.64 110 70C111.65 70 113.3 70 115 70C115 71.65 115 73.3 115 75C116.32 75 117.64 75 119 75C119 73.35 119 71.7 119 70C120.65 70 122.3 70 124 70C124 67.03 124 64.06 124 61Z" fill="#090909"/>
<path d="M124 61C125.32 61 126.64 61 128 61C128 62.32 128 63.64 128 65C129.32 65 130.64 65 132 65C132 63.68 132 62.36 132 61C133.65 61 135.3 61 137 61C137 62.65 137 64.3 137 66C138.65 66 140.3 66 142 66C142 64.35 142 62.7 142 61C143.32 61 144.64 61 146 61C146 63.97 146 66.94 146 70C147.65 70 149.3 70 151 70C151 67.03 151 64.06 151 61C152.32 61 153.64 61 155 61C155 66.94 155 72.88 155 79C153.35 79 151.7 79 150 79C150 77.68 150 76.36 150 75C147.36 75 144.72 75 142 75C142 76.32 142 77.64 142 79C143.32 79 144.64 79 146 79C146 80.32 146 81.64 146 83C147.32 83.33 148.64 83.66 150 84C148.68 84 147.36 84 146 84C146 85.32 146 86.64 146 88C144.68 88 143.36 88 142 88C142 89.65 142 91.3 142 93C140.35 93 138.7 93 137 93C137 94.32 137 95.64 137 97C135.35 97 133.7 97 132 97C132 95.68 132 94.36 132 93C130.68 93 129.36 93 128 93C128 94.32 128 95.64 128 97C126.68 97 125.36 97 124 97C124 102.94 124 108.88 124 115C122.35 115 120.7 115 119 115C119 109.06 119 103.12 119 97C113.06 97 107.12 97 101 97C101 95.35 101 93.7 101 92C99.68 92 98.36 92 97 92C97 94.97 97 97.94 97 101C95.68 101 94.36 101 93 101C93 96.71 93 92.42 93 88C94.32 88 95.64 88 97 88C97 85.03 97 82.06 97 79C101.29 79 105.58 79 110 79C110 77.68 110 76.36 110 75C108.68 75 107.36 75 106 75C106 72.03 106 69.06 106 66C107.32 66 108.64 66 110 66C110 67.32 110 68.64 110 70C111.65 70 113.3 70 115 70C115 71.65 115 73.3 115 75C116.32 75 117.64 75 119 75C119 73.35 119 71.7 119 70C120.65 70 122.3 70 124 70C124 67.03 124 64.06 124 61Z" fill="#EDEDED"/>
<path d="M28.9587 24.8865C30.2487 24.8965 31.5487 24.8965 32.8787 24.9065C34.1387 24.9065 35.3887 24.9065 36.6887 24.9065C38.2987 24.9165 39.9087 24.9265 41.5587 24.9365C46.6587 24.9565 51.7487 24.9765 56.9987 24.9965C56.9987 35.5565 56.9987 46.1165 56.9987 56.9965C46.4387 56.9965 35.8787 56.9965 24.9987 56.9965C24.9787 51.9065 24.9587 46.8065 24.9387 41.5665C24.9287 39.9565 24.9187 38.3465 24.9087 36.6865C24.9087 35.4265 24.9087 34.1765 24.8987 32.8765C24.8987 31.5865 24.8887 30.2965 24.8887 28.9565C25.0387 25.0365 25.0387 25.0365 28.9587 24.8865Z" fill="#1D1D1D"/>
<path d="M26 124C36.23 124 46.46 124 57 124C57 134.23 57 144.46 57 155C46.77 155 36.54 155 26 155C26 144.77 26 134.54 26 124Z" fill="#F0F0F0"/>
<path d="M124 26C134.23 26 144.46 26 155 26C155 36.23 155 46.46 155 57C144.77 57 134.54 57 124 57C124 46.77 124 36.54 124 26Z" fill="#EDEDED"/>
<path d="M75 26C82.26 26 89.52 26 97 26C97 27.32 97 28.64 97 30C95.68 30 94.36 30 93 30C93 32.97 93 35.94 93 39C95.97 39 98.94 39 102 39C102 40.32 102 41.64 102 43C103.32 43 104.64 43 106 43C106 40.03 106 37.06 106 34C107.32 34 108.64 34 110 34C110 38.62 110 43.24 110 48C108.68 48 107.36 48 106 48C106 49.32 106 50.64 106 52C107.32 52 108.64 52 110 52C110 53.65 110 55.3 110 57C111.65 57 113.3 57 115 57C115 55.35 115 53.7 115 52C116.32 52 117.64 52 119 52C119 56.62 119 61.24 119 66C117.68 66 116.36 66 115 66C115 64.35 115 62.7 115 61C110.38 61 105.76 61 101 61C101 59.68 101 58.36 101 57C99.68 57 98.36 57 97 57C97 55.35 97 53.7 97 52C98.32 52 99.64 52 101 52C101 50.68 101 49.36 101 48C98.03 48 95.06 48 92 48C92 45.03 92 42.06 92 39C90.68 39 89.36 39 88 39C88 40.32 88 41.64 88 43C85.03 43 82.06 43 79 43C79 41.68 79 40.36 79 39C73.06 39 67.12 39 61 39C61 37.35 61 35.7 61 34C63.97 34 66.94 34 70 34C70 32.68 70 31.36 70 30C71.65 30 73.3 30 75 30C75 28.68 75 27.36 75 26Z" fill="#0D0D0D"/>
<path d="M106 66C107.32 66 108.64 66 110 66C110 67.32 110 68.64 110 70C111.65 70 113.3 70 115 70C115 71.65 115 73.3 115 75C116.32 75 117.64 75 119 75C119 73.35 119 71.7 119 70C120.65 70 122.3 70 124 70C124 72.97 124 75.94 124 79C125.32 79 126.64 79 128 79C128 77.68 128 76.36 128 75C132.29 75 136.58 75 141 75C141 76.32 141 77.64 141 79C139.68 79 138.36 79 137 79C137 80.65 137 82.3 137 84C138.32 84 139.64 84 141 84C141 85.32 141 86.64 141 88C139.68 88 138.36 88 137 88C137 89.32 137 90.64 137 92C135.68 92 134.36 92 133 92C133 90.68 133 89.36 133 88C131.35 88 129.7 88 128 88C128 86.35 128 84.7 128 83C125.36 83 122.72 83 120 83C120 81.68 120 80.36 120 79C118.35 79 116.7 79 115 79C115 80.32 115 81.64 115 83C113.35 83 111.7 83 110 83C110 84.65 110 86.3 110 88C111.65 88 113.3 88 115 88C115 90.97 115 93.94 115 97C110.38 97 105.76 97 101 97C101 95.35 101 93.7 101 92C99.68 92 98.36 92 97 92C97 94.97 97 97.94 97 101C95.68 101 94.36 101 93 101C93 96.71 93 92.42 93 88C94.32 88 95.64 88 97 88C97 85.03 97 82.06 97 79C101.29 79 105.58 79 110 79C110 77.68 110 76.36 110 75C108.68 75 107.36 75 106 75C106 72.03 106 69.06 106 66Z" fill="#070707"/>
<path d="M48 61C50.97 61 53.94 61 57 61C57 62.65 57 64.3 57 66C58.32 66 59.64 66 61 66C61 67.32 61 68.64 61 70C62.65 70 64.3 70 66 70C66 71.65 66 73.3 66 75C67.32 75 68.64 75 70 75C70 76.32 70 77.64 70 79C68.68 79 67.36 79 66 79C66 80.32 66 81.64 66 83C67.32 83 68.64 83 70 83C70 84.65 70 86.3 70 88C71.65 88 73.3 88 75 88C75 85.03 75 82.06 75 79C76.32 79 77.64 79 79 79C79 77.68 79 76.36 79 75C80.32 75 81.64 75 83 75C83 76.32 83 77.64 83 79C84.65 79 86.3 79 88 79C88 80.65 88 82.3 88 84C85.03 84 82.06 84 79 84C79 89.61 79 95.22 79 101C77.68 101 76.36 101 75 101C75 98.03 75 95.06 75 92C73.35 92 71.7 92 70 92C70 93.65 70 95.3 70 97C67.03 97 64.06 97 61 97C61 98.32 61 99.64 61 101C58.36 101 55.72 101 53 101C53 99.68 53 98.36 53 97C54.32 97 55.64 97 57 97C57 95.68 57 94.36 57 93C58.32 93 59.64 93 61 93C61 91.35 61 89.7 61 88C59.68 88 58.36 88 57 88C57 86.68 57 85.36 57 84C55.35 84 53.7 84 52 84C52 82.35 52 80.7 52 79C54.97 79 57.94 79 61 79C61 77.68 61 76.36 61 75C58.03 75 55.06 75 52 75C52 73.35 52 71.7 52 70C50.68 70 49.36 70 48 70C48 67.03 48 64.06 48 61Z" fill="#0A0A0A"/>
<path d="M34 74C35.65 74 37.3 74 39 74C39 75.65 39 77.3 39 79C37.68 79 36.36 79 35 79C35 80.32 35 81.64 35 83C36.3 82.98 37.6 82.96 38.94 82.94C40.29 82.92 41.65 82.93 43 83C44 84 44 84 44.1 85.85C44.07 87.9 44.03 89.95 44 92C45.32 92 46.64 92 48 92C48 90.68 48 89.36 48 88C50.97 88 53.94 88 57 88C57 89.32 57 90.64 57 92C55.35 92 53.7 92 52 92C52 93.65 52 95.3 52 97C49.03 97 46.06 97 43 97C43 95.68 43 94.36 43 93C41.68 93 40.36 93 39 93C39 95.64 39 98.28 39 101C40.65 101 42.3 101 44 101C44 103.97 44 106.94 44 110C43.67 108.68 43.34 107.36 43 106C41.68 106 40.36 106 39 106C39 107.32 39 108.64 39 110C36.03 110 33.06 110 30 110C30 112.97 30 115.94 30 119C28.68 119 27.36 119 26 119C26 111.74 26 104.48 26 97C27.32 97 28.64 97 30 97C30 98.32 30 99.64 30 101C31.32 101 32.64 101 34 101C34 98.03 34 95.06 34 92C35.65 92 37.3 92 39 92C39 90.68 39 89.36 39 88C36.03 88 33.06 88 30 88C30 86.35 30 84.7 30 83C28.68 83 27.36 83 26 83C26 80.36 26 77.72 26 75C27.32 75 28.64 75 30 75C30 76.32 30 77.64 30 79C31.32 79 32.64 79 34 79C34 77.35 34 75.7 34 74Z" fill="#7C7C7C"/>
<path d="M30 30C37.26 30 44.52 30 52 30C52 37.26 52 44.52 52 52C44.74 52 37.48 52 30 52C30 44.74 30 37.48 30 30Z" fill="#FCFCFC"/>
<path d="M26 124C36.23 124 46.46 124 57 124C57 134.23 57 144.46 57 155C46.77 155 36.54 155 26 155C26 144.77 26 134.54 26 124ZM30 128C30 135.26 30 142.52 30 150C37.26 150 44.52 150 52 150C52 142.74 52 135.48 52 128C44.74 128 37.48 128 30 128Z" fill="#0E0E0E"/>
<path d="M61 43C65.62 43 70.24 43 75 43C75 44.65 75 46.3 75 48C77.97 48 80.94 48 84 48C84 53.61 84 59.22 84 65C85.32 65 86.64 65 88 65C88 63.68 88 62.36 88 61C89.32 61 90.64 61 92 61C92 62.65 92 64.3 92 66C90.68 66 89.36 66 88 66C88 67.32 88 68.64 88 70C85.03 70 82.06 70 79 70C79 71.32 79 72.64 79 74C77.68 74 76.36 74 75 74C75 71.36 75 68.72 75 66C76.32 66 77.64 66 79 66C79 61.38 79 56.76 79 52C77.68 52 76.36 52 75 52C75 54.97 75 57.94 75 61C73.35 61 71.7 61 70 61C70 63.97 70 66.94 70 70C68.68 70 67.36 70 66 70C66 67.03 66 64.06 66 61C64.35 61 62.7 61 61 61C61 58.03 61 55.06 61 52C62.65 52 64.3 52 66 52C66 50.68 66 49.36 66 48C64.35 48 62.7 48 61 48C61 46.35 61 44.7 61 43Z" fill="#0B0B0B"/>
<path d="M124 26C134.23 26 144.46 26 155 26C155 36.23 155 46.46 155 57C144.77 57 134.54 57 124 57C124 46.77 124 36.54 124 26ZM128 30C128 37.26 128 44.52 128 52C135.59 52 143.18 52 151 52C151 44.74 151 37.48 151 30C143.41 30 135.82 30 128 30Z" fill="#080808"/>
<path d="M75 52C76.32 52 77.64 52 79 52C79 56.62 79 61.24 79 66C77.68 66 76.36 66 75 66C75 68.64 75 71.28 75 74C76.32 74 77.64 74 79 74C79 72.68 79 71.36 79 70C83.62 70 88.24 70 93 70C93 68.68 93 67.36 93 66C95.64 66 98.28 66 101 66C101 68.64 101 71.28 101 74C99.68 74.16 99.68 74.16 93 75C92.67 76.32 92.34 77.64 92 79C89.03 79 86.06 79 83 79C83 77.68 83 76.36 83 75C81.68 75 80.36 75 79 75C79 76.32 79 77.64 79 79C77.68 79 76.36 79 75 79C75 81.97 75 84.94 75 88C73.35 88 71.7 88 70 88C70 86.35 70 84.7 70 83C68.68 83 67.36 83 66 83C66 81.68 66 80.36 66 79C67.32 79 68.64 79 70 79C70 77.68 70 76.36 70 75C68.68 75 67.36 75 66 75C66 73.35 66 71.7 66 70C67.32 70 68.64 70 70 70C70 67.03 70 64.06 70 61C71.65 61 73.3 61 75 61C75 58.03 75 55.06 75 52Z" fill="#E8E8E8"/>
<path d="M115 79C116.65 79 118.3 79 120 79C120 80.32 120 81.64 120 83C122.64 83 125.28 83 128 83C128 84.65 128 86.3 128 88C129.32 88 130.64 88 132 88C132 89.32 132 90.64 132 92C130.68 92 129.36 92 128 92C128 93.65 128 95.3 128 97C126.68 97 125.36 97 124 97C124 102.94 124 108.88 124 115C122.35 115 120.7 115 119 115C119 109.06 119 103.12 119 97C117.68 97 116.36 97 115 97C115 94.03 115 91.06 115 88C113.35 88 111.7 88 110 88C110 86.35 110 84.7 110 83C111.65 83 113.3 83 115 83C115 81.68 115 80.36 115 79Z" fill="#EFEFEF"/>
<path d="M57 88C58.32 88 59.64 88 61 88C61 89.65 61 91.3 61 93C59.68 93 58.36 93 57 93C57 94.32 57 95.64 57 97C55.68 97 54.36 97 53 97C53 98.32 53 99.64 53 101C55.64 101 58.28 101 61 101C61 99.68 61 98.36 61 97C63.97 97 66.94 97 70 97C70 95.35 70 93.7 70 92C71.65 92 73.3 92 75 92C75 94.97 75 97.94 75 101C76.32 101.33 77.64 101.66 79 102C77.68 102 76.36 102 75 102C74.67 103.32 74.34 104.64 74 106C74 104.68 74 103.36 74 102C69.71 102 65.42 102 61 102C61 103.32 61 104.64 61 106C55.39 106 49.78 106 44 106C44 104.35 44 102.7 44 101C42.35 101 40.7 101 39 101C39 98.36 39 95.72 39 93C40.32 93 41.64 93 43 93C43 94.32 43 95.64 43 97C45.97 97 48.94 97 52 97C52 95.35 52 93.7 52 92C53.65 92 55.3 92 57 92C57 90.68 57 89.36 57 88Z" fill="#C3C3C3"/>
<path d="M119 119C123.62 119 128.24 119 133 119C133 123.62 133 128.24 133 133C128.38 133 123.76 133 119 133C119 128.38 119 123.76 119 119Z" fill="#CFCFCF"/>
<path d="M34 34C38.62 34 43.24 34 48 34C48 38.62 48 43.24 48 48C43.38 48 38.76 48 34 48C34 43.38 34 38.76 34 34Z" fill="#151515"/>
<path d="M106 106C108.97 106 111.94 106 115 106C115 107.32 115 108.64 115 110C113.35 110 111.7 110 110 110C110 111.65 110 113.3 110 115C111.65 115 113.3 115 115 115C115 116.32 115 117.64 115 119C112.03 119 109.06 119 106 119C106 121.97 106 124.94 106 128C104.68 128 103.36 128 102 128C102 129.65 102 131.3 102 133C100.35 133 98.7 133 97 133C97 131.35 97 129.7 97 128C98.32 128 99.64 128 101 128C101 123.71 101 119.42 101 115C102.65 115 104.3 115 106 115C106 112.03 106 109.06 106 106Z" fill="#FAFAFA"/>
<path d="M133 34C137.29 34 141.58 34 146 34C146 38.62 146 43.24 146 48C141.71 48 137.42 48 133 48C133 43.38 133 38.76 133 34Z" fill="#0B0B0B"/>
<path d="M35 133C39.29 133 43.58 133 48 133C48 137.29 48 141.58 48 146C43.71 146 39.42 146 35 146C35 141.71 35 137.42 35 133Z" fill="#030303"/>
<path d="M142 61C143.32 61 144.64 61 146 61C146 63.97 146 66.94 146 70C147.65 70 149.3 70 151 70C151 67.03 151 64.06 151 61C152.32 61 153.64 61 155 61C155 66.94 155 72.88 155 79C153.35 79 151.7 79 150 79C150 77.35 150 75.7 150 74C147.36 74 144.72 74 142 74C142 72.68 142 71.36 142 70C140.35 70 138.7 70 137 70C137 68.68 137 67.36 137 66C138.65 66 140.3 66 142 66C142 64.35 142 62.7 142 61Z" fill="#090909"/>
<path d="M34 74C35.65 74 37.3 74 39 74C39 75.65 39 77.3 39 79C37.68 79 36.36 79 35 79C35 80.32 35 81.64 35 83C37.64 83 40.28 83 43 83C43 85.97 43 88.94 43 92C41.68 92 40.36 92 39 92C39 90.68 39 89.36 39 88C36.03 88 33.06 88 30 88C30 86.35 30 84.7 30 83C28.68 83 27.36 83 26 83C26 80.36 26 77.72 26 75C27.32 75 28.64 75 30 75C30 76.32 30 77.64 30 79C31.32 79 32.64 79 34 79C34 77.35 34 75.7 34 74Z" fill="#010101"/>
<path d="M141 70C141.33 71.32 141.66 72.64 142 74C144.64 74 147.28 74 150 74C150 74.33 150 74.66 150 75C147.36 75 144.72 75 142 75C142 76.32 142 77.64 142 79C143.32 79 144.64 79 146 79C146 80.32 146 81.64 146 83C147.32 83.33 148.64 83.66 150 84C148.68 84 147.36 84 146 84C146 85.32 146 86.64 146 88C144.68 88 143.36 88 142 88C142 89.65 142 91.3 142 93C140.35 93 138.7 93 137 93C137 94.32 137 95.64 137 97C135.35 97 133.7 97 132 97C132 95.68 132 94.36 132 93C130.68 92.67 129.36 92.34 128 92C129.32 92 130.64 92 132 92C132.33 90.68 132.66 89.36 133 88C133 89.32 133 90.64 133 92C134.32 92 135.64 92 137 92C137 90.68 137 89.36 137 88C138.32 88 139.64 88 141 88C141 86.68 141 85.36 141 84C139.68 84 138.36 84 137 84C137 82.35 137 80.7 137 79C138.32 79 139.64 79 141 79C141 77.68 141 76.36 141 75C136.71 75 132.42 75 128 75C128 74.67 128 74.34 128 74C132.29 74 136.58 74 141 74C141 72.68 141 71.36 141 70Z" fill="#AAAAAA"/>
<path d="M39 93C40.32 93 41.64 93 43 93C43 94.32 43 95.64 43 97C45.97 97 48.94 97 52 97C52 98.65 52 100.3 52 102C54.97 102 57.94 102 61 102C61 103.32 61 104.64 61 106C55.39 106 49.78 106 44 106C44 104.35 44 102.7 44 101C42.35 101 40.7 101 39 101C39 98.36 39 95.72 39 93Z" fill="#FAFAFA"/>
<path d="M26 97C27.32 97 28.64 97 30 97C30 98.65 30 100.3 30 102C31.32 102 32.64 102 34 102C34 103.32 34 104.64 34 106C35.65 106 37.3 106 39 106C39 107.32 39 108.64 39 110C36.03 110 33.06 110 30 110C30 112.97 30 115.94 30 119C28.68 119 27.36 119 26 119C26 111.74 26 104.48 26 97Z" fill="#010101"/>
<path d="M142 142C144.64 142 147.28 142 150 142C150 143.32 150 144.64 150 146C148.68 146 147.36 146 146 146C146 147.32 146 148.64 146 150C146.82 150.16 146.82 150.16 151 151C151 152.32 151 153.64 151 155C149.35 155 147.7 155 146 155C146 153.68 146 152.36 146 151C144.68 151 143.36 151 142 151C142 152.32 142 153.64 142 155C140.35 155 138.7 155 137 155C137 153.68 137 152.36 137 151C135.68 151 134.36 151 133 151C132.67 152.32 132.34 153.64 132 155C132 153.68 132 152.36 132 151C130.68 151 129.36 151 128 151C128 149.35 128 147.7 128 146C129.65 146 131.3 146 133 146C133 147.32 133 148.64 133 150C135.97 150 138.94 150 142 150C142 147.36 142 144.72 142 142Z" fill="#7D7D7D"/>
<path d="M83 119C84.65 119 86.3 119 88 119C88 120.65 88 122.3 88 124C86.68 124 85.36 124 84 124C84 125.32 84 126.64 84 128C85.32 128 86.64 128 88 128C88 129.32 88 130.64 88 132C89.32 132 90.64 132 92 132C92 134.97 92 137.94 92 141C90.68 141 89.36 141 88 141C88 138.36 88 135.72 88 133C86.68 133 85.36 133 84 133C84 134.32 84 135.64 84 137C82.35 137 80.7 137 79 137C79 135.35 79 133.7 79 132C80.32 132 81.64 132 83 132C83 130.68 83 129.36 83 128C81.68 128 80.36 128 79 128C79 126.35 79 124.7 79 123C80.32 123 81.64 123 83 123C83 121.68 83 120.36 83 119Z" fill="#C0C0C0"/>
<path d="M115 52C116.32 52 117.64 52 119 52C119 56.62 119 61.24 119 66C117.68 66 116.36 66 115 66C115 64.35 115 62.7 115 61C110.71 61 106.42 61 102 61C102 59.68 102 58.36 102 57C103.32 57 104.64 57 106 57C106 55.68 106 54.36 106 53C107.32 53 108.64 53 110 53C110 54.32 110 55.64 110 57C111.65 57 113.3 57 115 57C115 55.35 115 53.7 115 52Z" fill="#040404"/>
<path d="M101 25C106.94 25 112.88 25 119 25C119 26.65 119 28.3 119 30C113.39 30 107.78 30 102 30C102 31.32 102 32.64 102 34C100.35 34 98.7 34 97 34C97 32.68 97 31.36 97 30C98.32 30 99.64 30 101 30C101 28.35 101 26.7 101 25Z" fill="#010101"/>
<path d="M88 106C90.97 106 93.94 106 97 106C97 108.97 97 111.94 97 115C95.35 115 93.7 115 92 115C92 116.32 92 117.64 92 119C90.68 119 89.36 119 88 119C88 116.36 88 113.72 88 111C86.68 111 85.36 111 84 111C83.67 112.32 83.34 113.64 83 115C83 113.35 83 111.7 83 110C84.65 110 86.3 110 88 110C88 108.68 88 107.36 88 106Z" fill="#DCDCDC"/>
<path d="M93 66C95.64 66 98.28 66 101 66C101 68.64 101 71.28 101 74C98.36 74.33 95.72 74.66 93 75C92.67 76.32 92.34 77.64 92 79C90.68 79 89.36 79 88 79C88 76.03 88 73.06 88 70C89.65 70 91.3 70 93 70C93 68.68 93 67.36 93 66Z" fill="#020202"/>
<path d="M128 137C130.97 137 133.94 137 137 137C137 138.32 137 139.64 137 141C138.32 141 139.64 141 141 141C141.33 139.68 141.66 138.36 142 137C142 138.32 142 139.64 142 141C144.64 141 147.28 141 150 141C150 141.33 150 141.66 150 142C147.36 142 144.72 142 142 142C142 144.64 142 147.28 142 150C140.35 150 138.7 150 137 150C137 147.36 137 144.72 137 142C134.03 142 131.06 142 128 142C128 140.35 128 138.7 128 137Z" fill="#888888"/>
<path d="M106 142C108.97 142 111.94 142 115 142C115 144.64 115 147.28 115 150C113.35 150 111.7 150 110 150C110 151.65 110 153.3 110 155C108.68 155 107.36 155 106 155C106 150.71 106 146.42 106 142Z" fill="#040404"/>
<path d="M70 142C75.94 142 81.88 142 88 142C88 144.64 88 147.28 88 150C86.68 150 85.36 150 84 150C84 148.68 84 147.36 84 146C79.38 146 74.76 146 70 146C70 144.68 70 143.36 70 142Z" fill="#FAFAFA"/>
<path d="M48 61C50.97 61 53.94 61 57 61C57 63.97 57 66.94 57 70C54.03 70 51.06 70 48 70C48 67.03 48 64.06 48 61Z" fill="#111111"/>
<path d="M115 79C116.65 79 118.3 79 120 79C120 80.32 120 81.64 120 83C122.64 83 125.28 83 128 83C128 83.33 128 83.66 128 84C125.03 84 122.06 84 119 84C119 85.32 119 86.64 119 88C116.03 88 113.06 88 110 88C110 86.35 110 84.7 110 83C111.65 83 113.3 83 115 83C115 81.68 115 80.36 115 79Z" fill="#939393"/>
<path d="M48 88C50.97 88 53.94 88 57 88C57 89.32 57 90.64 57 92C55.35 92 53.7 92 52 92C52 93.65 52 95.3 52 97C49.36 97 46.72 97 44 97C44 95.68 44 94.36 44 93C45.32 93 46.64 93 48 93C48 91.35 48 89.7 48 88Z" fill="#060606"/>
<path d="M70 93C71.32 93 72.64 93 74 93C74 95.64 74 98.28 74 101C69.71 101 65.42 101 61 101C61 99.68 61 98.36 61 97C63.97 97 66.94 97 70 97C70 95.68 70 94.36 70 93Z" fill="#F8F8F8"/>
<path d="M106 137C108.97 137 111.94 137 115 137C115 138.32 115 139.64 115 141C116.32 141.33 117.64 141.66 119 142C113.39 142 107.78 142 102 142C102 146.29 102 150.58 102 155C101.67 155 101.34 155 101 155C101 150.38 101 145.76 101 141C102.65 141 104.3 141 106 141C106 139.68 106 138.36 106 137Z" fill="#C1C1C1"/>
<path d="M110 124C111.65 124 113.3 124 115 124C115 126.97 115 129.94 115 133C112.03 133 109.06 133 106 133C106 131.35 106 129.7 106 128C107.32 128 108.64 128 110 128C110 126.68 110 125.36 110 124Z" fill="#E4E4E4"/>
<path d="M61 110C64.3 110 67.6 110 71 110C71 114.29 71 118.58 71 123C71.99 123 72.98 123 74 123C74 118.71 74 114.42 74 110C75.65 110 77.3 110 79 110C77.68 110.33 76.36 110.66 75 111C75 115.29 75 119.58 75 124C73.35 124 71.7 124 70 124C70 119.71 70 115.42 70 111C68.68 111 67.36 111 66 111C66 112.32 66 113.64 66 115C64.35 115 62.7 115 61 115C61 113.35 61 111.7 61 110Z" fill="#B4B4B4"/>
<path d="M128 101C130.97 101 133.94 101 137 101C137 103.97 137 106.94 137 110C135.68 110 134.36 110 133 110C133 108.68 133 107.36 133 106C131.35 106 129.7 106 128 106C128 104.35 128 102.7 128 101Z" fill="#E9E9E9"/>
<path d="M101 48C101.33 49.32 101.66 50.64 102 52C104.64 52 107.28 52 110 52C108.68 52.33 107.36 52.66 106 53C106 54.32 106 55.64 106 57C104.68 57 103.36 57 102 57C101.67 58.32 101.34 59.64 101 61C101 59.68 101 58.36 101 57C99.68 57 98.36 57 97 57C97 55.35 97 53.7 97 52C98.32 52 99.64 52 101 52C101 50.68 101 49.36 101 48Z" fill="#787878"/>
<path d="M79 70C81.97 70 84.94 70 88 70C88 72.97 88 75.94 88 79C86.68 79 85.36 79 84 79C84 77.35 84 75.7 84 74C82.35 74 80.7 74 79 74C79 72.68 79 71.36 79 70Z" fill="#F4F4F4"/>
<path d="M35 115C39.29 115 43.58 115 48 115C48 116.32 48 117.64 48 119C43.71 119 39.42 119 35 119C35 117.68 35 116.36 35 115Z" fill="#020202"/>
<path d="M124 61C125.32 61 126.64 61 128 61C128 62.65 128 64.3 128 66C129.32 66 130.64 66 132 66C132 67.32 132 68.64 132 70C129.36 70 126.72 70 124 70C124 67.03 124 64.06 124 61Z" fill="#040404"/>
<path d="M83 30C84.65 30 86.3 30 88 30C88 31.65 88 33.3 88 35C86.68 35 85.36 35 84 35C84 36.32 84 37.64 84 39C82.35 39 80.7 39 79 39C79 37.35 79 35.7 79 34C80.32 34 81.64 34 83 34C83 32.68 83 31.36 83 30Z" fill="#CCCCCC"/>
<path d="M142 142C144.64 142 147.28 142 150 142C150 143.32 150 144.64 150 146C148.68 146 147.36 146 146 146C146 147.32 146 148.64 146 150C144.68 150 143.36 150 142 150C142 147.36 142 144.72 142 142Z" fill="black"/>
<path d="M83 48C83.33 48 83.66 48 84 48C84 53.61 84 59.22 84 65C85.32 65 86.64 65 88 65C88 63.68 88 62.36 88 61C89.32 61 90.64 61 92 61C92 62.65 92 64.3 92 66C89.03 66 86.06 66 83 66C83 60.06 83 54.12 83 48Z" fill="#4E4E4E"/>
<path d="M101 25C106.94 25 112.88 25 119 25C119 25.33 119 25.66 119 26C113.39 26 107.78 26 102 26C102 28.64 102 31.28 102 34C100.35 34 98.7 34 97 34C97 32.68 97 31.36 97 30C98.32 30 99.64 30 101 30C101 28.35 101 26.7 101 25Z" fill="#555555"/>
<path d="M101 115C101.33 115 101.66 115 102 115C102 120.94 102 126.88 102 133C100.35 133 98.7 133 97 133C97 131.35 97 129.7 97 128C98.32 128 99.64 128 101 128C101 123.71 101 119.42 101 115Z" fill="#B8B8B8"/>
<path d="M132 88C132.33 89.32 132.66 90.64 133 92C135.97 92 138.94 92 142 92C142 92.33 142 92.66 142 93C140.35 93 138.7 93 137 93C137 94.32 137 95.64 137 97C135.35 97 133.7 97 132 97C132 95.68 132 94.36 132 93C130.68 92.67 129.36 92.34 128 92C129.32 92 130.64 92 132 92C132 90.68 132 89.36 132 88Z" fill="#B1B1B1"/>
<path d="M34 74C35.65 74 37.3 74 39 74C39 75.65 39 77.3 39 79C37.68 79 36.36 79 35 79C35 80.32 35 81.64 35 83C37.64 83 40.28 83 43 83C43 83.33 43 83.66 43 84C40.03 84 37.06 84 34 84C34 80.7 34 77.4 34 74Z" fill="#535353"/>
<path d="M128 137C130.97 137 133.94 137 137 137C137 138.32 137 139.64 137 141C134.03 141 131.06 141 128 141C128 139.68 128 138.36 128 137Z" fill="#F2F2F2"/>
<path d="M142 115C143.32 115 144.64 115 146 115C146 117.97 146 120.94 146 124C144.68 124 143.36 124 142 124C142 121.03 142 118.06 142 115Z" fill="#F5F5F5"/>
<path d="M88 106C90.97 106 93.94 106 97 106C97 107.32 97 108.64 97 110C94.03 110 91.06 110 88 110C88 108.68 88 107.36 88 106Z" fill="#020202"/>
<path d="M84 88C85.32 88 86.64 88 88 88C88 90.97 88 93.94 88 97C86.68 97 85.36 97 84 97C84 94.03 84 91.06 84 88Z" fill="#040404"/>
<path d="M70 92C71.65 92 73.3 92 75 92C75 94.97 75 97.94 75 101C76.32 101.33 77.64 101.66 79 102C77.68 102 76.36 102 75 102C74.67 103.32 74.34 104.64 74 106C74 104.68 74 103.36 74 102C69.71 102 65.42 102 61 102C61 101.67 61 101.34 61 101C65.29 101 69.58 101 74 101C74 98.36 74 95.72 74 93C72.68 92.67 71.36 92.34 70 92Z" fill="#7D7D7D"/>
<path d="M92 61C92.33 62.32 92.66 63.64 93 65C95.64 65 98.28 65 101 65C101 65.33 101 65.66 101 66C98.36 66 95.72 66 93 66C93 67.32 93 68.64 93 70C91.35 70 89.7 70 88 70C88 68.68 88 67.36 88 66C89.32 66 90.64 66 92 66C92 64.35 92 62.7 92 61Z" fill="#C9C9C9"/>
<path d="M137 142C138.32 142 139.64 142 141 142C141 144.64 141 147.28 141 150C139.68 150 138.36 150 137 150C137 147.36 137 144.72 137 142Z" fill="#F7F7F7"/>
<path d="M88 133C89.32 133 90.64 133 92 133C92 135.64 92 138.28 92 141C90.68 141 89.36 141 88 141C88 138.36 88 135.72 88 133Z" fill="#FBFBFB"/>
<path d="M142 102C143.32 102 144.64 102 146 102C146 104.64 146 107.28 146 110C144.68 110 143.36 110 142 110C142 107.36 142 104.72 142 102Z" fill="#FCFCFC"/>
<path d="M35 93C36.32 93 37.64 93 39 93C39 95.64 39 98.28 39 101C37.68 101 36.36 101 35 101C35 98.36 35 95.72 35 93Z" fill="#040404"/>
<path d="M141 70C141.33 71.32 141.66 72.64 142 74C144.64 74 147.28 74 150 74C150 74.33 150 74.66 150 75C147.36 75 144.72 75 142 75C141.67 76.32 141.34 77.64 141 79C141 77.68 141 76.36 141 75C136.71 75 132.42 75 128 75C128 74.67 128 74.34 128 74C132.29 74 136.58 74 141 74C141 72.68 141 71.36 141 70Z" fill="#858585"/>
<path d="M43 84C43.33 84 43.66 84 44 84C44 86.64 44 89.28 44 92C45.32 92.33 46.64 92.66 48 93C46.68 93 45.36 93 44 93C43.67 94.32 43.34 95.64 43 97C43 95.68 43 94.36 43 93C40.03 93 37.06 93 34 93C34 92.67 34 92.34 34 92C36.97 92 39.94 92 43 92C43 89.36 43 86.72 43 84Z" fill="#858585"/>
<path d="M52 110C53.65 110 55.3 110 57 110C57 111.65 57 113.3 57 115C55.35 115 53.7 115 52 115C52 113.35 52 111.7 52 110Z" fill="#CDCDCD"/>
<path d="M101 83C102.65 83 104.3 83 106 83C106 84.65 106 86.3 106 88C104.35 88 102.7 88 101 88C101 86.35 101 84.7 101 83Z" fill="#C8C8C8"/>
<path d="M88 52C89.65 52 91.3 52 93 52C93 53.65 93 55.3 93 57C91.35 57 89.7 57 88 57C88 55.35 88 53.7 88 52Z" fill="#343434"/>
<path d="M146 151C147.65 151 149.3 151 151 151C151 152.32 151 153.64 151 155C149.35 155 147.7 155 146 155C146 153.68 146 152.36 146 151Z" fill="#1E1E1E"/>
<path d="M70 133C71.65 133 73.3 133 75 133C75 134.32 75 135.64 75 137C73.35 137 71.7 137 70 137C70 135.68 70 134.36 70 133Z" fill="#E4E4E4"/>
<path d="M93 119C94.32 119 95.64 119 97 119C97 120.65 97 122.3 97 124C95.68 124 94.36 124 93 124C93 122.35 93 120.7 93 119Z" fill="#DFDFDF"/>
<path d="M84 119C85.32 119 86.64 119 88 119C88 120.65 88 122.3 88 124C86.68 124 85.36 124 84 124C84 122.35 84 120.7 84 119Z" fill="#E2E2E2"/>
<path d="M119 88C120.65 88 122.3 88 124 88C124 89.32 124 90.64 124 92C122.35 92 120.7 92 119 92C119 90.68 119 89.36 119 88Z" fill="#1B1B1B"/>
<path d="M52 66C53.65 66 55.3 66 57 66C57 67.32 57 68.64 57 70C55.35 70 53.7 70 52 70C52 68.68 52 67.36 52 66Z" fill="#E5E5E5"/>
<path d="M133 61C134.32 61 135.64 61 137 61C137 62.65 137 64.3 137 66C135.68 66 134.36 66 133 66C133 64.35 133 62.7 133 61Z" fill="#1A1A1A"/>
<path d="M66 52C67.32 52 68.64 52 70 52C70 53.65 70 55.3 70 57C68.68 57 67.36 57 66 57C66 55.35 66 53.7 66 52Z" fill="#E4E4E4"/>
<path d="M115 43C116.32 43 117.64 43 119 43C119 44.65 119 46.3 119 48C117.68 48 116.36 48 115 48C115 46.35 115 44.7 115 43Z" fill="#1B1B1B"/>
<path d="M61 26C62.65 26 64.3 26 66 26C66 27.32 66 28.64 66 30C64.35 30 62.7 30 61 30C61 28.68 61 27.36 61 26Z" fill="#1A1A1A"/>
</g>
</g>
<defs>
<clipPath id="clip0_22834_85">
<rect width="180" height="180" fill="white"/>
</clipPath>
</defs>
</svg>
